<svg width="24" height="24" viewBox="0 0 24 24" fill="none" xmlns="http://www.w3.org/2000/svg">
  <path d="M18 14h3.5M4.5 14H8M18 9h3.5M4.5 9H8" stroke="currentColor" stroke-width="1.5" stroke-linecap="round"/>
  <path d="m18.5 4-1.5 2M5.5 4l1.5 2M18.5 20l-1.5-2M5.5 20l1.5-2" stroke="currentColor" stroke-width="1.5" stroke-linecap="round"/>
  <path d="M8 6V4.5a2.5 2.5 0 0 1 5 0V6h1c1.1 0 2 .9 2 2v6c0 3.314-2.686 6-6 6s-6-2.686-6-6V8c0-1.1.9-2 2-2h1z" fill="currentColor"/>
  <circle cx="12" cy="12" r="1" fill="white"/>
</svg>