<svg viewBox="0 0 240 240" fill="none" xmlns="http://www.w3.org/2000/svg">
  <path d="M40 120C40 83.4 48.7 48.3 65.4 17.9C82.1 -12.5 106.8 -39.8 137.2 -59.4C167.6 -79 203.7 -90.9 240 -93.5C276.3 -96.1 312.8 -89.4 345.1 -74.1C377.4 -58.8 405.5 -35 426.8 -4.8C448.1 25.4 462.6 58.6 468.7 93.2C474.8 127.8 472.5 163.8 461.9 197.6C451.3 231.4 432.4 262.9 406.7 288.6C381 314.3 348.5 334.2 313.1 346.7C277.7 359.2 240.3 364.3 203.1 361.5C165.9 358.7 129.8 347.9 98.1 330.2C66.4 312.5 39.1 288 18.7 257.8C-1.7 227.6 -15.5 191.8 -21.8 154.2C-28.1 116.6 -26.9 77.2 -18.2 39.6C-9.5 2 6.7 -33.8 28.9 -66.8" fill="currentColor" opacity="0.1"/>
  <path d="M40 120C40 83.4 48.7 48.3 65.4 17.9C82.1 -12.5 106.8 -39.8 137.2 -59.4C167.6 -79 203.7 -90.9 240 -93.5" stroke="currentColor" stroke-width="2" fill="none"/>
</svg>